# xmcd
#
# Track frame offsets: 
#        150
#        24301
#        44826
#        67468
#        80350
#        95646
#        120296
#        135666
#        157442
#        176001
#        205847
#        227255
#        246921
#        266590
#        282343
#        307083
#
# Disc length: 4437 seconds
#
# Revision: 6
# Processed by: cddbd v1.5.2PL0 Copyright (c) Steve Scherf et al.
# Submitted via: ExactAudioCopyFreeDBPlugin 1.0
#
DISCID=ed115310
DTITLE=Phil Collins - ...Hits
DYEAR=0
DGENRE=
TTITLE0=Another day in paradise
TTITLE1=True colors
TTITLE2=Easy Lover
TTITLE3=You can't hurry love
TTITLE4=Two hearts
TTITLE5=I wish it would rain down
TTITLE6=Againts all ods
TTITLE7=Something happened in the way to heaven
TTITLE8=Separate lives
TTITLE9=Other side of history
TTITLE10=One more night
TTITLE11=Sussudio
TTITLE12=Dance into the light
TTITLE13=A groovy kind of love
TTITLE14=In air tonight
TTITLE15=Take me home
EXTD=
EXTT0=
EXTT1=
EXTT2=
EXTT3=
EXTT4=
EXTT5=
EXTT6=
EXTT7=
EXTT8=
EXTT9=
EXTT10=
EXTT11=
EXTT12=
EXTT13=
EXTT14=
EXTT15=
PLAYORDER=
